<svg width="10" height="17" viewBox="0 0 10 17" fill="none" xmlns="http://www.w3.org/2000/svg">
<path d="M1.78236 10.814C1.78236 10.814 1.65322 11.201 1.45952 11.3947C1.40279 11.4576 1.33307 11.5075 1.25517 11.5409C1.17727 11.5743 1.09306 11.5903 1.00834 11.588C0.690515 11.6738 0.36737 11.7385 0.0410156 11.7817C0.0410156 11.7817 0.492198 11.8459 1.00834 11.9104C1.20165 11.9104 1.20165 11.9104 1.33118 11.975C1.65322 11.975 1.78236 11.7817 1.78236 11.7817V10.814Z" fill="#E9654B"/>
<path d="M7.7163 10.814C7.7163 10.814 7.84504 11.201 8.03874 11.3947C8.09547 11.4576 8.1652 11.5075 8.24309 11.5409C8.32099 11.5743 8.40521 11.5903 8.48992 11.588C8.80788 11.6738 9.13116 11.7385 9.45764 11.7817C9.45764 11.7817 9.00607 11.8459 8.42575 11.9104C8.23205 11.9104 8.23205 11.9104 8.10291 11.975C7.7163 11.975 7.65173 11.7817 7.65173 11.7817L7.7163 10.814Z" fill="#E9654B"/>
<path d="M1.58908 7.13782C1.58908 7.13782 2.04063 14.4263 2.04063 14.5553C2.04063 14.6198 2.1051 14.7488 1.7826 14.8778C1.46009 15.0068 0.428101 15.2647 0.428101 15.2647H1.97611C2.68559 15.2647 2.68559 14.6842 2.68559 14.5553C2.68559 14.4263 2.87911 11.6528 2.87911 11.6528C2.87911 11.6528 2.94358 14.9423 2.94358 15.0713C2.94358 15.2002 2.87911 15.3938 2.42761 15.5228L1.13758 15.7808H2.62107C3.52407 15.7808 3.52407 15.2003 3.52407 15.2003L3.71758 12.2978C3.71758 12.2978 3.78211 15.2003 3.78211 15.5228C3.78211 15.7808 3.58859 15.9743 2.87911 16.1033C2.42756 16.2322 1.84707 16.3612 1.84707 16.3612H3.52407C4.3626 16.2968 4.49159 15.7162 4.49159 15.7162L5.91055 8.49231L1.58908 7.13782Z" fill="#EE794B"/>
<path d="M8.03912 7.13782C8.03912 7.13782 7.58757 14.4263 7.58757 14.5553C7.58757 14.6198 7.5231 14.7488 7.84561 14.8778C8.16811 15.0068 9.2001 15.2647 9.2001 15.2647H7.65209C6.94266 15.2647 6.94266 14.6842 6.94266 14.5553C6.94266 14.4263 6.7491 11.6528 6.7491 11.6528C6.7491 11.6528 6.68463 14.9423 6.68463 15.0713C6.68463 15.2002 6.7491 15.3938 7.2006 15.5228L8.49062 15.7808H7.00713C6.10414 15.7808 6.10414 15.2003 6.10414 15.2003L5.91062 12.2978C5.91062 12.2978 5.84615 15.2003 5.84615 15.5228C5.84615 15.7808 6.03961 15.9743 6.7491 16.1033C7.20065 16.2322 7.78114 16.3612 7.78114 16.3612H6.10414C5.26566 16.2968 5.13662 15.7162 5.13662 15.7162L3.71765 8.49231L8.03912 7.13782Z" fill="#EE794B"/>
<path d="M8.10366 3.59049C8.10366 5.39643 6.62012 6.81545 4.87865 6.81545C3.13717 6.81545 1.65369 5.33196 1.65369 3.59044C1.65369 1.84897 3.13717 0.365479 4.87865 0.365479C6.62012 0.365479 8.1036 1.7845 8.1036 3.59044L8.10366 3.59049Z" fill="#EE794B"/>
<mask id="mask0_2_4" style="mask-type:luminance" maskUnits="userSpaceOnUse" x="1" y="3" width="8" height="10">
<path d="M8.10355 3.46143L7.71658 12.2978H1.91162L1.58911 3.46143" fill="white"/>
</mask>
<g mask="url(#mask0_2_4)">
<path d="M4.8785 11.0724C8.04885 11.0724 10.6189 8.50234 10.6189 5.33199C10.6189 2.16163 8.04885 -0.408447 4.8785 -0.408447C1.70814 -0.408447 -0.861938 2.16163 -0.861938 5.33199C-0.861938 8.50234 1.70814 11.0724 4.8785 11.0724Z" fill="#EE794B"/>
</g>
<g opacity="0.22">
<path d="M7.91004 7.1379C7.91004 7.1379 8.29701 3.71948 7.78099 2.42945C6.81352 0.172009 4.55603 0.36547 4.55603 0.36547C4.55603 0.36547 5.84606 0.881492 5.91053 2.81648C5.97505 4.17097 5.91053 6.17043 5.91053 6.17043L7.91004 7.1379Z" fill="#F4F4F4"/>
</g>
<g opacity="0.5">
<path d="M3.52413 2.30046C3.77349 2.30046 3.97563 2.09832 3.97563 1.84896C3.97563 1.5996 3.77349 1.39746 3.52413 1.39746C3.27477 1.39746 3.07263 1.5996 3.07263 1.84896C3.07263 2.09832 3.27477 2.30046 3.52413 2.30046Z" fill="#FBDFC3"/>
</g>
<path d="M5.97516 8.42794C5.97516 9.5244 5.45914 10.2339 4.81418 10.2339C4.16917 10.2339 3.6532 9.39541 3.6532 8.29895C3.6532 8.29895 4.16917 9.33094 4.87865 9.33094C5.58813 9.33094 5.97516 8.42794 5.97516 8.42794Z" fill="#010101"/>
<path d="M5.97514 8.42793C5.97514 9.13735 5.45912 9.52438 4.81416 9.52438C4.16915 9.52438 3.71765 9.00842 3.71765 8.3634C3.71765 8.3634 4.23367 9.00842 4.94316 9.00842C5.65258 9.00842 5.97514 8.42793 5.97514 8.42793Z" fill="white"/>
<path d="M7.0716 7.39588C8.17587 7.39588 9.07105 6.5007 9.07105 5.39643C9.07105 4.29216 8.17587 3.39697 7.0716 3.39697C5.96733 3.39697 5.07214 4.29216 5.07214 5.39643C5.07214 6.5007 5.96733 7.39588 7.0716 7.39588Z" fill="#E9654B"/>
<path d="M2.55671 7.39588C3.66098 7.39588 4.55616 6.5007 4.55616 5.39643C4.55616 4.29216 3.66098 3.39697 2.55671 3.39697C1.45244 3.39697 0.557251 4.29216 0.557251 5.39643C0.557251 6.5007 1.45244 7.39588 2.55671 7.39588Z" fill="#E9654B"/>
<path d="M7.07157 6.94441C7.92651 6.94441 8.61958 6.25134 8.61958 5.3964C8.61958 4.54146 7.92651 3.84839 7.07157 3.84839C6.21663 3.84839 5.52356 4.54146 5.52356 5.3964C5.52356 6.25134 6.21663 6.94441 7.07157 6.94441Z" fill="white"/>
<path d="M2.42765 6.94441C3.28259 6.94441 3.97566 6.25134 3.97566 5.3964C3.97566 4.54146 3.28259 3.84839 2.42765 3.84839C1.57271 3.84839 0.879639 4.54146 0.879639 5.3964C0.879639 6.25134 1.57271 6.94441 2.42765 6.94441Z" fill="white"/>
<path d="M2.42769 5.65446C2.67705 5.65446 2.87919 5.45232 2.87919 5.20296C2.87919 4.95361 2.67705 4.75146 2.42769 4.75146C2.17834 4.75146 1.9762 4.95361 1.9762 5.20296C1.9762 5.45232 2.17834 5.65446 2.42769 5.65446Z" fill="#010101"/>
<path d="M7.07149 5.65446C7.32085 5.65446 7.52299 5.45232 7.52299 5.20296C7.52299 4.95361 7.32085 4.75146 7.07149 4.75146C6.82214 4.75146 6.62 4.95361 6.62 5.20296C6.62 5.45232 6.82214 5.65446 7.07149 5.65446Z" fill="#010101"/>
</svg>
