<svg width="129" height="17" viewBox="0 0 129 17" fill="none" xmlns="http://www.w3.org/2000/svg">
<path d="M7.656 16.192C12.298 16.192 15.312 12.584 15.312 8.074C15.312 3.63 12.276 0 7.656 0C3.014 0 0 3.608 0 8.118C0 12.562 3.036 16.192 7.656 16.192ZM8.536 15.136C4.73 15.136 2.508 11.11 2.508 6.512C2.508 3.146 4.576 0.946001 6.93 0.946001C10.736 0.946001 12.804 5.214 12.804 9.68C12.804 13.046 10.89 15.136 8.536 15.136Z" fill="#31302F"/>
<path d="M21.4928 16.192C22.2628 16.192 23.4948 15.818 24.9908 13.882H25.0348L24.8588 16.126L28.8628 15.906V15.29H27.5868L26.9488 14.586V4.906L23.0988 5.126V5.742H24.2208L24.8588 6.446V13.376C24.1548 14.102 23.4288 14.806 22.3728 14.806C21.3608 14.806 20.5028 14.08 20.5028 12.452V4.906L16.8068 5.126V5.742H17.7748L18.4128 6.446V12.76C18.4128 14.806 19.4468 16.192 21.4928 16.192Z" fill="#31302F"/>
<path d="M33.397 16.192C34.783 16.192 35.487 15.312 36.147 14.344L35.795 14.036C35.223 14.63 34.827 14.894 34.365 14.894C33.089 14.894 33.177 13.244 33.177 12.034V5.852H36.125V5.126H33.177V2.222H32.781L31.043 5.126H29.613V5.632L31.087 5.962V12.408C31.087 14.3 31.285 16.192 33.397 16.192Z" fill="#31302F"/>
<path d="M41.9803 16.192C44.8183 16.192 46.0503 14.058 46.6663 12.21L46.1383 11.968C45.1923 13.728 44.3563 14.41 42.6403 14.41C40.5283 14.41 39.1423 12.584 39.1423 9.812C39.1423 9.592 39.1423 9.35 39.1643 9.108L45.8743 9.284L46.1383 9.042C46.1603 8.91 46.1603 8.756 46.1603 8.602C46.1603 7.084 45.1483 4.84 42.1343 4.84C39.3183 4.84 37.2283 7.458 37.2283 10.648C37.2283 14.014 39.2083 16.192 41.9803 16.192ZM39.2523 8.426C39.4503 6.996 40.2423 5.566 41.6503 5.566C43.2783 5.566 43.7183 6.71 43.7183 8.03L43.2563 8.426H39.2523Z" fill="#31302F"/>
<path d="M47.8558 15.906H53.9938V15.29H52.2558L51.6398 14.586V8.448C52.2118 7.634 53.0258 7.04 53.7738 7.04C54.3458 7.04 54.8298 7.216 55.2698 7.7H55.3578L56.2378 5.522C56.0178 5.192 55.4018 4.84 54.5878 4.84C53.1358 4.84 52.0578 6.622 51.4418 8.008H51.3538V4.906L47.8558 5.126V5.742H48.9778L49.6158 6.446V14.586L48.9778 15.29H47.8558V15.906Z" fill="#31302F"/>
<path d="M62.3987 16.192C65.8747 16.192 67.7667 13.486 67.7667 10.12C67.7667 7.172 66.1607 4.84 63.3667 4.84C61.9147 4.84 61.0787 5.522 60.1107 6.49H60.0667V0.0660005L56.3707 0.286V0.902H57.3387L57.9767 1.606V15.224C59.0547 15.906 60.6167 16.192 62.3987 16.192ZM62.6627 15.488C61.5187 15.488 60.5727 14.806 60.0667 14.014V7.326C60.6827 6.754 61.2987 6.182 62.3107 6.182C64.4227 6.182 65.5667 8.58 65.5667 10.934C65.5667 13.046 64.7747 15.488 62.6627 15.488Z" fill="#31302F"/>
<path d="M74.9958 16.192C78.0538 16.192 80.3198 13.706 80.3198 10.45C80.3198 7.084 78.0978 4.84 74.9298 4.84C71.8278 4.84 69.5838 7.216 69.5838 10.428C69.5838 13.75 71.7398 16.192 74.9958 16.192ZM75.2818 15.466C72.9278 15.466 71.8498 12.012 71.8498 9.812C71.8498 7.744 72.6418 5.566 74.6438 5.566C76.9758 5.566 78.0318 8.998 78.0318 11.176C78.0318 13.2 77.2618 15.466 75.2818 15.466Z" fill="#31302F"/>
<path d="M86.3326 16.192C87.1026 16.192 88.3346 15.818 89.8306 13.882H89.8746L89.6986 16.126L93.7026 15.906V15.29H92.4266L91.7886 14.586V4.906L87.9386 5.126V5.742H89.0606L89.6986 6.446V13.376C88.9946 14.102 88.2686 14.806 87.2126 14.806C86.2006 14.806 85.3426 14.08 85.3426 12.452V4.906L81.6466 5.126V5.742H82.6146L83.2526 6.446V12.76C83.2526 14.806 84.2866 16.192 86.3326 16.192Z" fill="#31302F"/>
<path d="M94.5629 15.906H100.195V15.29H99.0289L98.4129 14.586V7.656C99.1169 6.93 99.9089 6.226 100.943 6.226C101.977 6.226 102.901 6.952 102.901 8.58V14.586L102.285 15.29H101.097V15.906H106.751V15.29H105.651L104.991 14.586V8.272C104.991 6.226 103.891 4.84 101.845 4.84C101.075 4.84 99.7769 5.214 98.2809 7.04H98.2369L98.4129 4.906L94.5629 5.126V5.742H95.6849L96.3229 6.446V14.586L95.6849 15.29H94.5629V15.906Z" fill="#31302F"/>
<path d="M112.377 16.192C113.829 16.192 114.797 15.488 115.875 14.256H115.919L115.677 16.126L119.725 15.906V15.29H118.405L117.767 14.586V0.0660005L113.477 0.286V0.902H115.039L115.677 1.606V5.434H115.633C114.973 5.104 114.159 4.84 113.345 4.84C109.869 4.84 107.977 7.546 107.977 10.912C107.977 13.86 109.583 16.192 112.377 16.192ZM113.433 14.85C111.321 14.85 110.177 12.452 110.177 10.098C110.177 7.986 110.969 5.544 113.081 5.544C114.225 5.544 115.325 6.446 115.677 7.458V13.706C115.061 14.278 114.489 14.85 113.433 14.85Z" fill="#31302F"/>
<path d="M125.245 16.192C126.917 16.192 128.611 15.136 128.611 13.024C128.611 9.394 122.737 9.372 122.737 6.952C122.737 5.984 123.507 5.544 124.233 5.544C125.553 5.544 126.697 6.666 127.181 8.25L127.335 8.756H127.995V4.906H127.401L127.181 5.324C126.697 5.126 125.707 4.84 124.673 4.84C122.737 4.84 121.197 5.874 121.197 7.766C121.197 11.308 127.115 11.264 127.115 14.036C127.115 14.916 126.477 15.422 125.509 15.422C124.233 15.422 122.869 14.212 122.011 12.474L121.747 11.946H121.087V16.126H121.659L122.099 15.29C122.539 15.62 123.705 16.192 125.245 16.192Z" fill="#31302F"/>
</svg>
